<?xml version="1.0" standalone="no"?>
<!DOCTYPE svg PUBLIC "-//W3C//DTD SVG 20010904//EN"
 "http://www.w3.org/TR/2001/REC-SVG-20010904/DTD/svg10.dtd">
<svg version="1.0" xmlns="http://www.w3.org/2000/svg"
 width="500.000000pt" height="500.000000pt" viewBox="0 0 500.000000 500.000000"
 preserveAspectRatio="xMidYMid meet">

<g transform="translate(0.000000,500.000000) scale(0.100000,-0.100000)"
fill="#FFFFFF" stroke="none">
<path d="M3293 3472 c68 -47 192 -170 253 -252 37 -49 75 -92 86 -96 35 -11
333 -195 438 -271 138 -100 309 -236 310 -247 1 -25 -276 -333 -417 -462 -466
-428 -882 -630 -1375 -665 -141 -11 -161 -10 -250 9 -351 74 -631 339 -729
692 -21 74 -24 107 -24 250 0 142 3 176 23 244 47 162 125 299 241 419 80 83
140 128 246 185 89 47 70 46 -80 -5 -120 -41 -330 -143 -438 -213 -72 -46 -80
-55 -107 -115 -44 -98 -80 -219 -96 -325 -43 -287 25 -584 190 -832 64 -96
211 -244 305 -307 133 -90 320 -167 466 -192 116 -20 333 -15 466 9 492 91
915 326 1353 752 214 209 522 570 500 589 -5 4 -45 39 -89 77 -304 267 -627
486 -928 629 -119 56 -281 121 -347 140 -25 6 -24 6 3 -13z"/>
<path d="M2390 3210 c-229 -36 -433 -189 -543 -407 -98 -192 -91 -473 15 -663
105 -187 286 -323 488 -366 84 -18 278 -14 340 6 84 28 179 73 173 83 -3 5 -1
7 4 4 13 -8 75 32 132 86 90 87 165 207 203 331 33 104 33 300 0 406 -79 252
-275 442 -521 505 -78 20 -216 27 -291 15z m262 -184 c103 -12 243 -105 306
-203 38 -60 72 -160 72 -212 0 -49 -29 -81 -75 -81 -42 0 -63 25 -82 96 -20
78 -44 122 -90 166 -57 55 -135 88 -209 88 -77 0 -114 24 -114 74 0 18 6 40
13 50 14 20 68 35 107 30 14 -2 46 -5 72 -8z"/>
</g>
</svg>
